<?xml version="1.0" encoding="utf-8"?>
<!-- Generator: Adobe Illustrator 23.0.2, SVG Export Plug-In . SVG Version: 6.00 Build 0)  -->
<svg version="1.1" id="Layer_1" xmlns="http://www.w3.org/2000/svg" xmlns:xlink="http://www.w3.org/1999/xlink" x="0px" y="0px"
	 viewBox="0 0 98.65 96.58" style="enable-background:new 0 0 98.65 96.58;" xml:space="preserve">
<style type="text/css">
	.st0{stroke:#FFFFFF;stroke-miterlimit:10;}
</style>
<path class="st0" d="M92.23,59.99H6.41c-1.56,0-2.83-1.28-2.83-2.83V39.42c0-1.56,1.28-2.83,2.83-2.83h85.82
	c1.56,0,2.83,1.28,2.83,2.83v17.73C95.07,58.72,93.79,59.99,92.23,59.99z"/>
<g>
	<path class="st0" d="M92.23,28.41H6.41c-1.56,0-2.83-1.28-2.83-2.83V7.84c0-1.56,1.28-2.83,2.83-2.83h85.82
		c1.56,0,2.83,1.28,2.83,2.83v17.73C95.07,27.14,93.79,28.41,92.23,28.41z"/>
	<path class="st0" d="M92.23,91.57H6.41c-1.56,0-2.83-1.28-2.83-2.83V71c0-1.56,1.28-2.83,2.83-2.83h85.82
		c1.56,0,2.83,1.28,2.83,2.83v17.73C95.07,90.3,93.79,91.57,92.23,91.57z"/>
</g>
</svg>
